Coordinates
version=1
nRows=17
nColumns=36
inDegrees=yes

Units are S.I. units (second, meters, Newtons, ...)
If the header above contains a line with 'inDegrees', this indicates whether rotational values are in degrees (yes) or radians (no).

endheader
time	pelvis_tilt	pelvis_list	pelvis_rotation	pelvis_tx	pelvis_ty	pelvis_tz	hip_flexion_r	hip_adduction_r	hip_rotation_r	knee_angle_r	knee_angle_r_beta	ankle_angle_r	subtalar_angle_r	mtp_angle_r	hip_flexion_l	hip_adduction_l	hip_rotation_l	knee_angle_l	knee_angle_l_beta	ankle_angle_l	subtalar_angle_l	mtp_angle_l	lumbar_extension	lumbar_bending	lumbar_rotation	arm_flex_r	arm_add_r	arm_rot_r	elbow_flex_r	pro_sup_r	arm_flex_l	arm_add_l	arm_rot_l	elbow_flex_l	pro_sup_l
      9.90000000	    -19.83424734	     -2.44132769	     -1.41327700	     -0.36739814	      0.66233551	     -0.60513073	     84.41038779	     -5.14222432	     -2.92882813	     83.04393792	      1.44939014	     20.80259626	     -2.44613306	     -7.49999987	     85.89339193	     -7.10760261	      0.55471128	     83.71861009	      1.46116539	     20.81644177	     -9.90730577	     -7.49999987	    -26.06707808	      3.19368600	     -0.23020973	     75.02381201	    -17.21820971	     12.27460177	     76.62402945	     93.97753206	     78.06767774	    -15.03976392	     15.39031372	     71.66431125	     82.50852661
      9.91000000	    -19.87245724	     -2.61064573	     -1.37704798	     -0.37131619	      0.65479121	     -0.60529213	     85.66870262	     -5.24569285	     -3.04588061	     84.23534187	      1.47018406	     20.77550203	     -2.46912403	     -7.49999987	     87.26722559	     -7.08519890	      0.86431761	     84.97842788	      1.48315336	     20.85747052	     -9.85405035	     -7.49999987	    -26.20453929	      3.38913097	     -0.24810941	     75.78832217	    -17.17552316	     12.55348438	     76.48547272	     93.95276361	     78.62177734	    -15.08277575	     15.50177596	     71.65090199	     82.36141377
      9.92000000	    -19.70534669	     -2.73164931	     -1.35338377	     -0.37529680	      0.64793553	     -0.60530730	     86.66016525	     -5.25137658	     -3.01977599	     85.32387573	      1.48918256	     20.78534903	     -2.57080834	     -7.49999987	     88.33548660	     -7.07706625	      1.10780056	     86.08573414	      1.50247950	     20.87131593	     -9.88257826	     -7.49999987	    -26.63277880	      3.48275946	     -0.28862915	     76.59577728	    -17.06242615	     12.56816624	     76.45518464	     93.92802989	     79.29980429	    -15.06319996	     15.44706691	     71.73429917	     82.29392005
      9.93000000	    -19.52281326	     -2.81542028	     -1.29597331	     -0.37924856	      0.64142466	     -0.60537389	     87.58630774	     -5.27962573	     -2.95425388	     86.33738668	      1.50687167	     20.77411120	     -2.67580414	     -7.49999987	     89.31639502	     -6.97928757	      1.33507164	     87.07148929	      1.51968417	     20.85296395	     -9.93666104	     -7.49999987	    -26.98343357	      3.51240631	     -0.36746177	     77.26688657	    -17.03818900	     12.60487219	     76.41468479	     93.89292691	     79.89672438	    -14.99750926	     15.39051151	     71.75026609	     82.25751493
      9.94000000	    -19.26975821	     -2.85800886	     -1.22825397	     -0.38317625	      0.63534382	     -0.60549138	     88.40843641	     -5.32852950	     -2.82308316	     87.26292226	      1.52302531	     20.79459712	     -2.76451386	     -7.49999987	     90.14075083	     -6.82427616	      1.56895735	     87.95808654	      1.53515821	     20.85833573	    -10.02169729	     -7.49999987	    -27.40095680	      3.49343447	     -0.42677534	     77.87717225	    -17.02150968	     12.54521419	     76.45617839	     93.87701363	     80.51394467	    -14.90055426	     15.31004671	     71.80199311	     82.25273440
      9.95000000	    -19.10446688	     -2.90661403	     -1.14362917	     -0.38689188	      0.62901523	     -0.60548030	     89.35720763	     -5.43336906	     -2.78622709	     88.26826039	      1.54057177	     20.68446678	     -2.89924566	     -7.49999987	     91.10185295	     -6.71260278	      1.72305862	     88.90602224	      1.55170281	     20.68667342	    -10.10781348	     -7.49999987	    -27.50126949	      3.46687786	     -0.48631007	     78.22910982	    -17.02379053	     12.61590820	     76.34262782	     93.81046574	     80.87208429	    -14.72632914	     15.44182069	     71.55940782	     82.19049563
      9.96000000	    -18.76375655	     -2.97904742	     -1.20457555	     -0.39063974	      0.62317167	     -0.60498412	     90.05537566	     -5.25878886	     -2.68563018	     89.14731865	      1.55591423	     20.68423842	     -2.99762557	     -7.49999987	     91.82413765	     -6.78196615	      1.94352233	     89.79750085	      1.56726205	     20.66354946	    -10.20344453	     -7.49999987	    -27.87073708	      3.37539494	     -0.45393783	     78.67745408	    -16.93548332	     12.53583149	     76.40201623	     93.79299709	     81.31224317	    -14.63108011	     15.43994100	     71.57177689	     82.17721401
      9.97000000	    -18.38423650	     -3.05301069	     -1.28054003	     -0.39434975	      0.61756649	     -0.60447579	     90.69238131	     -5.10603277	     -2.62927350	     89.98870041	      1.57059911	     20.65422835	     -3.09610246	     -7.49999987	     92.48592277	     -6.89341645	      2.13639232	     90.66295061	      1.58236700	     20.62204369	    -10.27954758	     -7.49999987	    -28.17751980	      3.28883299	     -0.42126062	     79.00262922	    -16.87588761	     12.50205930	     76.42401138	     93.77508947	     81.63050157	    -14.56508841	     15.45050523	     71.53200019	     82.16417905
      9.98000000	    -17.94507777	     -3.11568114	     -1.27005856	     -0.39818367	      0.61226050	     -0.60420958	     91.24148025	     -5.05083866	     -2.55855002	     90.78148788	      1.58443586	     20.60116686	     -3.18160579	     -7.49999987	     93.04624018	     -6.86411580	      2.33062258	     91.43178648	      1.59578571	     20.58145087	    -10.34666292	     -7.49999987	    -28.48859873	      3.22697205	     -0.45572734	     79.29613637	    -16.80482299	     12.49634629	     76.44311464	     93.76014215	     81.86488833	    -14.44782496	     15.47252886	     71.48134150	     82.15408910
      9.99000000	    -17.43684415	     -3.13778993	     -1.20898839	     -0.40195356	      0.60710710	     -0.60423689	     91.73344977	     -5.15334996	     -2.52818207	     91.58368404	      1.59843683	     20.48350100	     -3.28047541	     -7.49999987	     93.53750301	     -6.77290310	      2.43510966	     92.22050422	      1.60955144	     20.49012852	    -10.40970405	     -7.49999987	    -28.76825765	      3.19779788	     -0.49550901	     79.47958955	    -16.73228564	     12.46538219	     76.39538095	     93.73044109	     82.00908728	    -14.33431217	     15.50497801	     71.34419595	     82.12515179
     10.00000000	    -16.89030354	     -3.17460234	     -1.14205013	     -0.40563254	      0.60226839	     -0.60416903	     92.12812710	     -5.17670964	     -2.45647775	     92.33515634	      1.61155249	     20.36114710	     -3.38348302	     -7.49999987	     93.95052548	     -6.71663730	      2.54422678	     92.94384942	      1.62217619	     20.37523546	    -10.46434404	     -7.49999987	    -29.00208016	      3.14212256	     -0.59566719	     79.54171708	    -16.59077904	     12.39458013	     76.35758746	     93.69966755	     82.00339273	    -14.15377170	     15.55860236	     71.19641123	     82.08628031
     10.01000000	    -16.28802934	     -3.21152823	     -1.08157809	     -0.40927345	      0.59770966	     -0.60404605	     92.42564552	     -5.17546813	     -2.36170440	     93.02874215	      1.62365785	     20.27188588	     -3.46839528	     -7.49999987	     94.26511427	     -6.64619350	      2.68161096	     93.60442061	      1.63370533	     20.28633663	    -10.51338058	     -7.49999987	    -29.20701903	      3.09042263	     -0.66187071	     79.47806627	    -16.45962948	     12.34605775	     76.35303937	     93.68206884	     81.88521983	    -14.00937206	     15.59591244	     71.10037935	     82.06148048
     10.02000000	    -15.62452601	     -3.15049552	     -0.96230122	     -0.41299138	      0.59317862	     -0.60403039	     92.74721110	     -5.32529051	     -2.25366598	     93.78745276	      1.63689985	     19.74250054	     -3.88249240	     -7.49999987	     94.49924958	     -6.50399778	      2.68397980	     94.24842138	      1.64494527	     19.87367911	    -10.73718565	     -7.49999987	    -29.35902579	      2.92276834	     -0.78854319	     79.23873371	    -16.25333800	     11.87180225	     76.25388914	     93.52731020	     81.79526320	    -13.68487048	     15.47258513	     70.61350021	     81.92608772
     10.03000000	    -14.85536865	     -3.18227301	     -0.91168162	     -0.41665883	      0.58892990	     -0.60393531	     92.87386379	     -5.33892092	     -2.18828425	     94.48621055	      1.64909547	     19.68071649	     -3.97280462	     -7.49999987	     94.63769620	     -6.44577774	      2.81965261	     94.93145890	      1.65686652	     19.80609576	    -10.80629113	     -7.49999987	    -29.58790238	      2.84999070	     -0.85234045	     78.99767899	    -16.14076561	     11.88141268	     76.26131449	     93.50743484	     81.52346580	    -13.50947675	     15.49029382	     70.55168569	     81.91065736
     10.04000000	    -13.95611436	     -3.14185262	     -0.83695045	     -0.42040315	      0.58509394	     -0.60384965	     92.86079651	     -5.37507674	     -2.07306181	     95.13538209	      1.66042565	     19.47308122	     -4.22962015	     -7.49999987	     94.60417963	     -6.45714672	      2.77882002	     95.53667886	      1.66742960	     19.52398745	    -10.84489725	     -7.49999987	    -29.89464126	      2.67912427	     -0.94651419	     78.71502068	    -15.97469476	     11.66276876	     76.19317473	     93.40013204	     81.22535069	    -13.07877375	     15.29982160	     70.24013579	     81.78971320
     10.05000000	    -13.11873883	     -3.18760837	     -0.78882392	     -0.42401595	      0.58126525	     -0.60384677	     92.85103938	     -5.39839007	     -2.04445585	     95.73996684	      1.67097765	     19.39534159	     -4.30493798	     -7.49999987	     94.62367217	     -6.44715426	      2.86819206	     96.14404442	      1.67803013	     19.44518273	    -10.90218713	     -7.49999987	    -30.01162391	      2.65263782	     -0.96250230	     78.27745875	    -15.90824816	     11.72488620	     76.19696383	     93.37883809	     80.64350404	    -12.94097633	     15.46022556	     70.17940245	     81.74887803
     10.06000000	    -12.25032144	     -3.24494260	     -0.74667765	     -0.42778316	      0.57754117	     -0.60381125	     92.79975085	     -5.38005364	     -1.97859181	     96.30458509	      1.68083209	     19.31295149	     -4.35607954	     -7.49999987	     94.56880687	     -6.37362816	      3.04433743	     96.67523334	      1.68730113	     19.36408447	    -10.94665493	     -7.49999987	    -30.09964434	      2.64467526	     -0.93756543	     77.80108818	    -15.79251976	     11.79618708	     76.19696620	     93.36728068	     80.03465253	    -12.82257277	     15.61294726	     70.12451266	     81.72336251
